After a drunken house party with his straight mates, Russell heads out to a gay club. Just before closing time he picks up Glen but what's expected to be just a one-night stand becomes something else, something special. 

____________________________________________


Format                           : Matroska
File size                        : 4.37 GiB
Duration                         : 1h 36mn
Overall bit rate                 : 6 468 Kbps
Encoded date                     : UTC 2012-03-20 11:29:09
Writing application              : mkvmerge v5.0.1 ('Es ist Sommer') built on Oct  9 2011 11:55:43
Writing library                  : libebml v1.2.2 + libmatroska v1.3.0

Video
ID                               : 1
Format                           : AVC
Format/Info                      : Advanced Video Codec
Format profile                   : High@L4.1
Format settings, CABAC           : Yes
Format settings, ReFrames        : 9 frames
Codec ID                         : V_MPEG4/ISO/AVC
Duration                         : 1h 36mn
Bit rate                         : 6 073 Kbps
Width                            : 1 280 pixels
Height                           : 692 pixels
Display aspect ratio             : 1.850
Frame rate                       : 23.976 fps
Color space                      : YUV
Chroma subsampling               : 4:2:0
Bit depth                        : 8 bits
Scan type                        : Progressive
Bits/(Pixel*Frame)               : 0.286
Stream size                      : 4.03 GiB (92%)
Language                         : English

Audio
ID                               : 2
Format                           : AC-3
Format/Info                      : Audio Coding 3
Mode extension                   : CM (complete main)
Codec ID                         : A_AC3
Duration                         : 1h 36mn
Bit rate mode                    : Constant
Bit rate                         : 384 Kbps
Channel(s)                       : 2 channels
Channel positions                : Front: L R
Sampling rate                    : 48.0 KHz
Bit depth                        : 16 bits
Compression mode                 : Lossy
Stream size                      : 266 MiB (6%)
Language                         : English

Text
ID                               : 3
Format                           : PGS
Muxing mode                      : zlib
Codec ID                         : S_HDMV/PGS
Codec ID/Info                    : The same subtitle format used on BDs/HD-DVDs
Language                         : English
